<svg width="52" height="52" viewBox="0 0 52 52" fill="none" xmlns="http://www.w3.org/2000/svg">
<path d="M14.6464 47.6667H37.353C43.333 47.6667 45.7164 44.005 45.998 39.5417L47.1247 21.645C47.428 16.965 43.7014 13 38.9997 13C37.678 13 36.4647 12.2417 35.858 11.0717L34.298 7.93004C33.3014 5.95837 30.7014 4.33337 28.4914 4.33337H23.5297C21.298 4.33337 18.698 5.95837 17.7014 7.93004L16.1414 11.0717C15.5347 12.2417 14.3214 13 12.9997 13C8.29805 13 4.57138 16.965 4.87471 21.645L6.00138 39.5417C6.26138 44.005 8.66638 47.6667 14.6464 47.6667Z" stroke="#292D32" stroke-width="1.5" stroke-linecap="round" stroke-linejoin="round"/>
<path d="M22.75 17.3334H29.25" stroke="#292D32" stroke-width="1.5" stroke-linecap="round" stroke-linejoin="round"/>
<path d="M26.0007 39C29.879 39 33.0423 35.8366 33.0423 31.9583C33.0423 28.08 29.879 24.9166 26.0007 24.9166C22.1223 24.9166 18.959 28.08 18.959 31.9583C18.959 35.8366 22.1223 39 26.0007 39Z" stroke="#292D32" stroke-width="1.5" stroke-linecap="round" stroke-linejoin="round"/>
</svg>
