<svg width="19" height="18" viewBox="0 0 19 18" fill="none" xmlns="http://www.w3.org/2000/svg">
<path d="M9.5 17.0625C5.0525 17.0625 1.4375 13.4475 1.4375 9C1.4375 4.5525 5.0525 0.9375 9.5 0.9375C13.9475 0.9375 17.5625 4.5525 17.5625 9C17.5625 13.4475 13.9475 17.0625 9.5 17.0625ZM9.5 2.0625C5.675 2.0625 2.5625 5.175 2.5625 9C2.5625 12.825 5.675 15.9375 9.5 15.9375C13.325 15.9375 16.4375 12.825 16.4375 9C16.4375 5.175 13.325 2.0625 9.5 2.0625Z" fill="#565656"/>
<path d="M8.375 12.5625C7.0325 12.5625 5.9375 11.4675 5.9375 10.125C5.9375 7.5375 8.0375 5.4375 10.625 5.4375C11.9675 5.4375 13.0625 6.5325 13.0625 7.875C13.0625 10.4625 10.9625 12.5625 8.375 12.5625ZM10.625 6.5625C8.66 6.5625 7.0625 8.16 7.0625 10.125C7.0625 10.845 7.655 11.4375 8.375 11.4375C10.34 11.4375 11.9375 9.84 11.9375 7.875C11.9375 7.155 11.345 6.5625 10.625 6.5625Z" fill="#565656"/>
</svg>
