<svg width="32" height="32" viewBox="0 0 32 32" fill="none" xmlns="http://www.w3.org/2000/svg">
<path d="M18.9332 3.83331C17.2977 3.83331 15.7292 4.48301 14.5727 5.63949C13.4162 6.79596 12.7665 8.36448 12.7665 9.99998V13.4333H9.4665C9.30117 13.4333 9.1665 13.5666 9.1665 13.7333V18.2666C9.1665 18.432 9.29984 18.5666 9.4665 18.5666H12.7665V27.8666C12.7665 28.032 12.8998 28.1666 13.0665 28.1666H17.5998C17.7652 28.1666 17.8998 28.0333 17.8998 27.8666V18.5666H21.2292C21.3665 18.5666 21.4865 18.4733 21.5198 18.34L22.6532 13.8066C22.6643 13.7624 22.6652 13.7162 22.6558 13.6716C22.6465 13.6269 22.627 13.585 22.599 13.549C22.571 13.513 22.5351 13.4839 22.4941 13.4638C22.4531 13.4438 22.4081 13.4333 22.3625 13.4333H17.8998V9.99998C17.8998 9.86428 17.9266 9.72991 17.9785 9.60454C18.0304 9.47917 18.1065 9.36526 18.2025 9.2693C18.2984 9.17335 18.4124 9.09723 18.5377 9.0453C18.6631 8.99337 18.7975 8.96665 18.9332 8.96665H22.3998C22.5652 8.96665 22.6998 8.83331 22.6998 8.66665V4.13331C22.6998 3.96798 22.5665 3.83331 22.3998 3.83331H18.9332Z" fill="#4285F4"/>
</svg>
