<svg width="132" height="40" viewBox="0 0 132 40" fill="none" xmlns="http://www.w3.org/2000/svg">
<g clip-path="url(#clip0_703_4947)">
<path d="M30.8332 3.12561C26.5901 0.430935 21.4862 -0.576347 16.5331 0.303423C11.58 1.18319 7.13927 3.88579 4.09115 7.87554C1.04302 11.8653 -0.390022 16.8509 0.0760714 21.8443C0.542165 26.8376 2.87337 31.4742 6.60761 34.8349L10.2753 29.0883C8.05703 26.7151 6.78266 23.6174 6.6908 20.3751C6.59893 17.1328 7.69586 13.9683 9.77619 11.4741C11.8565 8.97996 14.7776 7.32716 17.9925 6.8252C21.2073 6.32324 24.4955 7.00655 27.2413 8.74719C29.9872 10.4878 32.0023 13.1664 32.9095 16.2814C33.8166 19.3964 33.5536 22.7342 32.1696 25.6698C30.7856 28.6054 28.3756 30.9375 25.3908 32.2294C22.406 33.5213 19.0511 33.6845 15.9543 32.6883L12.2855 38.4361C16.9221 40.3844 22.1239 40.5249 26.8596 38.8298C31.5953 37.1348 35.519 33.7278 37.853 29.2845C40.187 24.8411 40.7608 19.6858 39.4605 14.8406C38.1603 9.99539 35.081 5.81407 30.8332 3.12561Z" fill="#110B65"/>
<path d="M25.7064 23.5772C26.4162 22.4649 26.7793 21.1677 26.7496 19.8498C26.7199 18.5318 26.2987 17.2523 25.5395 16.1729C24.7802 15.0935 23.7168 14.2628 22.4839 13.7858C21.251 13.3088 19.9038 13.2069 18.6128 13.4931C17.3218 13.7792 16.1449 14.4406 15.231 15.3934C14.3171 16.3463 13.7071 17.5479 13.4783 18.8463C13.2495 20.1447 13.412 21.4816 13.9455 22.6879C14.4789 23.8942 15.3592 24.9157 16.4751 25.6233C17.2159 26.0933 18.0424 26.4132 18.9074 26.5647C19.7723 26.7162 20.6587 26.6964 21.516 26.5064C22.3732 26.3164 23.1845 25.9599 23.9035 25.4573C24.6225 24.9547 25.2351 24.3158 25.7064 23.5772ZM22.1597 16.789C20.2726 15.5923 17.9388 15.5957 15.9599 16.5836C17.885 14.8467 20.6635 14.4515 22.7913 15.8022C24.9191 17.1529 25.7366 19.8275 24.9751 22.3035C25.0333 20.0932 24.0467 17.9857 22.1597 16.789Z" fill="#110B65"/>
<path d="M46.0278 6.67318H49.6373V29.7223H58.3456V33.3201H46.0278V6.67318Z" fill="#110B65"/>
<path d="M59.2012 24.6187C59.2012 22.2633 60.1344 20.1684 62.0009 18.3339C63.8674 16.4995 66.0113 15.5827 68.4325 15.5834C70.9216 15.5834 73.0969 16.4861 74.9581 18.2915C76.8194 20.0969 77.7496 22.206 77.7489 24.6187C77.7489 27.0455 76.8362 29.1824 75.0108 31.0295C73.1853 32.8766 71.0769 33.8005 68.6856 33.8012C66.1255 33.8012 63.9047 32.8878 62.0233 31.0608C60.1419 29.2338 59.2012 27.0864 59.2012 24.6187ZM74.2257 24.6298C74.2257 23.163 73.6658 21.8882 72.5459 20.8054C72.024 20.2827 71.4023 19.8697 70.7175 19.5907C70.0327 19.3117 69.2988 19.1725 68.559 19.1812C67.8029 19.1704 67.0523 19.3103 66.3513 19.5929C65.6502 19.8755 65.013 20.2949 64.477 20.8266C63.3369 21.9228 62.7669 23.2322 62.7669 24.7548C62.7669 26.2082 63.344 27.4797 64.4983 28.5692C65.6525 29.6587 67.0061 30.2034 68.559 30.2034C70.0701 30.2034 71.392 29.6453 72.5246 28.529C73.6572 27.4127 74.2242 26.113 74.2257 24.6298Z" fill="#110B65"/>
<path d="M79.3291 24.6187C79.3291 22.2633 80.2623 20.1684 82.1288 18.3339C83.9953 16.4995 86.1392 15.5827 88.5604 15.5834C91.0503 15.5834 93.2255 16.4861 95.0861 18.2915C96.9466 20.0969 97.8776 22.206 97.8791 24.6187C97.8791 27.0455 96.9664 29.1824 95.1409 31.0295C93.3155 32.8766 91.2064 33.8005 88.8135 33.8012C86.2549 33.8012 84.0345 32.8878 82.1524 31.0608C80.2702 29.2338 79.3291 27.0864 79.3291 24.6187ZM94.3536 24.6298C94.3536 23.163 93.7937 21.8882 92.6738 20.8054C92.152 20.2826 91.5303 19.8695 90.8455 19.5905C90.1607 19.3115 89.4267 19.1724 88.687 19.1812C87.931 19.1704 87.1806 19.3104 86.4797 19.5929C85.7789 19.8755 85.1418 20.295 84.6061 20.8266C83.466 21.9228 82.896 23.2322 82.896 24.7548C82.896 26.2082 83.4727 27.4797 84.6262 28.5692C85.7797 29.6587 87.1333 30.2034 88.687 30.2034C90.1981 30.2034 91.5199 29.6453 92.6525 28.529C93.7851 27.4127 94.3521 26.113 94.3536 24.6298Z" fill="#110B65"/>
<path d="M99.6094 6.17197H103.26V23.6363L110.414 16.0645H115.137L107.669 24.0337L115.221 33.3201H110.703L103.26 24.2012V33.3201H99.6094V6.17197Z" fill="#110B65"/>
<path d="M116.956 16.0645H120.606V25.7863C120.606 28.7839 121.928 30.2827 124.572 30.2827C125.747 30.2827 126.677 29.882 127.363 29.0805C128.048 28.279 128.391 27.1809 128.391 25.7863V16.0645H132V26.3757C132 28.5383 131.294 30.3162 129.881 31.7093C128.469 33.1025 126.664 33.7998 124.468 33.8013C122.228 33.8013 120.416 33.1039 119.033 31.7093C117.65 30.3147 116.957 28.4952 116.956 26.2507V16.0645Z" fill="#110B65"/>
</g>
<defs>
<clipPath id="clip0_703_4947">
<rect width="132" height="40" fill="white"/>
</clipPath>
</defs>
</svg>
