<svg width="132" height="40" viewBox="0 0 132 40" fill="none" xmlns="http://www.w3.org/2000/svg">
<g clip-path="url(#clip0_743_7781)">
<path d="M30.8327 3.12555C26.5896 0.430874 21.4857 -0.576408 16.5326 0.303362C11.5795 1.18313 7.13878 3.88573 4.09066 7.87548C1.04253 11.8652 -0.39051 16.8509 0.0755831 21.8442C0.541677 26.8376 2.87288 31.4741 6.60712 34.8349L10.2748 29.0882C8.05654 26.7151 6.78218 23.6173 6.69031 20.375C6.59844 17.1327 7.69537 13.9682 9.7757 11.4741C11.856 8.9799 14.7771 7.3271 17.992 6.82514C21.2068 6.32318 24.495 7.00649 27.2408 8.74713C29.9867 10.4878 32.0018 13.1663 32.909 16.2813C33.8161 19.3963 33.5531 22.7341 32.1691 25.6697C30.7851 28.6053 28.3751 30.9374 25.3903 32.2293C22.4055 33.5213 19.0506 33.6844 15.9538 32.6882L12.285 38.436C16.9216 40.3843 22.1234 40.5249 26.8591 38.8298C31.5948 37.1347 35.5186 33.7278 37.8525 29.2844C40.1865 24.8411 40.7603 19.6857 39.46 14.8405C38.1598 9.99533 35.0806 5.81401 30.8327 3.12555Z" fill="white"/>
<path d="M25.7059 23.5771C26.4158 22.4648 26.7788 21.1677 26.7491 19.8497C26.7194 18.5318 26.2982 17.2522 25.539 16.1728C24.7797 15.0935 23.7163 14.2627 22.4834 13.7857C21.2505 13.3087 19.9034 13.2069 18.6123 13.493C17.3213 13.7792 16.1445 14.4405 15.2305 15.3934C14.3166 16.3462 13.7066 17.5478 13.4778 18.8462C13.249 20.1446 13.4116 21.4815 13.945 22.6878C14.4784 23.8941 15.3587 24.9157 16.4746 25.6233C17.2155 26.0932 18.042 26.4131 18.9069 26.5647C19.7718 26.7162 20.6582 26.6964 21.5155 26.5064C22.3727 26.3163 23.184 25.9599 23.903 25.4572C24.622 24.9546 25.2346 24.3158 25.7059 23.5771ZM22.1592 16.7889C20.2721 15.5923 17.9383 15.5956 15.9594 16.5835C17.8845 14.8466 20.663 14.4514 22.7908 15.8021C24.9186 17.1529 25.7361 19.8275 24.9746 22.3034C25.0328 20.0932 24.0462 17.9856 22.1592 16.7889Z" fill="white"/>
<path d="M46.0273 6.6731H49.6368V29.7222H58.3451V33.32H46.0273V6.6731Z" fill="white"/>
<path d="M59.2012 24.6186C59.2012 22.2632 60.1344 20.1683 62.0009 18.3339C63.8674 16.4995 66.0113 15.5826 68.4325 15.5834C70.9216 15.5834 73.0969 16.4861 74.9581 18.2915C76.8194 20.0969 77.7496 22.2059 77.7489 24.6186C77.7489 27.0454 76.8362 29.1824 75.0108 31.0295C73.1853 32.8766 71.0769 33.8005 68.6856 33.8012C66.1255 33.8012 63.9047 32.8877 62.0233 31.0607C60.1419 29.2337 59.2012 27.0864 59.2012 24.6186ZM74.2257 24.6298C74.2257 23.163 73.6658 21.8882 72.5459 20.8054C72.024 20.2827 71.4023 19.8697 70.7175 19.5907C70.0327 19.3117 69.2988 19.1724 68.559 19.1812C67.8029 19.1703 67.0523 19.3103 66.3513 19.5929C65.6502 19.8754 65.013 20.2949 64.477 20.8266C63.3369 21.9228 62.7669 23.2322 62.7669 24.7548C62.7669 26.2082 63.344 27.4797 64.4983 28.5692C65.6525 29.6587 67.0061 30.2034 68.559 30.2034C70.0701 30.2034 71.392 29.6453 72.5246 28.529C73.6572 27.4127 74.2242 26.113 74.2257 24.6298Z" fill="white"/>
<path d="M79.3291 24.6186C79.3291 22.2632 80.2623 20.1683 82.1288 18.3339C83.9953 16.4995 86.1392 15.5826 88.5604 15.5834C91.0503 15.5834 93.2255 16.4861 95.0861 18.2915C96.9466 20.0969 97.8776 22.2059 97.8791 24.6186C97.8791 27.0454 96.9664 29.1824 95.1409 31.0295C93.3155 32.8766 91.2064 33.8005 88.8135 33.8012C86.2549 33.8012 84.0345 32.8877 82.1524 31.0607C80.2702 29.2337 79.3291 27.0864 79.3291 24.6186ZM94.3536 24.6298C94.3536 23.163 93.7937 21.8882 92.6738 20.8054C92.152 20.2826 91.5303 19.8695 90.8455 19.5905C90.1607 19.3115 89.4267 19.1723 88.687 19.1812C87.931 19.1703 87.1806 19.3103 86.4797 19.5929C85.7789 19.8755 85.1418 20.2949 84.6061 20.8266C83.466 21.9228 82.896 23.2322 82.896 24.7548C82.896 26.2082 83.4727 27.4797 84.6262 28.5692C85.7797 29.6587 87.1333 30.2034 88.687 30.2034C90.1981 30.2034 91.5199 29.6453 92.6525 28.529C93.7851 27.4127 94.3521 26.113 94.3536 24.6298Z" fill="white"/>
<path d="M99.6094 6.17188H103.26V23.6362L110.414 16.0644H115.137L107.669 24.0336L115.221 33.32H110.703L103.26 24.2011V33.32H99.6094V6.17188Z" fill="white"/>
<path d="M116.955 16.0645H120.606V25.7862C120.606 28.7838 121.928 30.2826 124.571 30.2826C125.747 30.2826 126.677 29.8819 127.362 29.0804C128.048 28.2789 128.39 27.1808 128.39 25.7862V16.0645H132V26.3756C132 28.5382 131.293 30.3161 129.881 31.7093C128.468 33.1024 126.664 33.7997 124.467 33.8012C122.228 33.8012 120.416 33.1039 119.032 31.7093C117.649 30.3146 116.957 28.4951 116.955 26.2506V16.0645Z" fill="white"/>
</g>
<defs>
<clipPath id="clip0_743_7781">
<rect width="132" height="40" fill="white"/>
</clipPath>
</defs>
</svg>
