<svg width="100" height="100" viewBox="0 0 100 100" fill="none" xmlns="http://www.w3.org/2000/svg">
<path d="M49.952 88.5416C63.7321 88.5416 74.9031 77.8713 74.9031 64.7088C74.9031 51.5463 63.7321 40.876 49.952 40.876C36.1719 40.876 25.001 51.5463 25.001 64.7088C25.001 77.8713 36.1719 88.5416 49.952 88.5416Z" stroke="#110B65" stroke-width="6" stroke-linecap="round"/>
<path d="M33.1387 46.3823V25.425C37.485 6.50259 61.9272 7.10519 67.7189 25.425V47.0656" stroke="#110B65" stroke-width="6" stroke-linecap="round"/>
<path d="M50.1091 66.2234C53.5543 66.2234 56.3471 63.5558 56.3471 60.2651C56.3471 56.9744 53.5543 54.3067 50.1091 54.3067C46.6639 54.3067 43.8711 56.9744 43.8711 60.2651C43.8711 63.5558 46.6639 66.2234 50.1091 66.2234Z" fill="#110B65"/>
<path d="M50.0723 72.3005V61.1391V72.3005Z" fill="#110B65"/>
<path d="M50.0723 72.3005V61.1391" stroke="#110B65" stroke-width="6" stroke-linecap="round"/>
</svg>
