<svg width="100" height="100" viewBox="0 0 100 100" fill="none" xmlns="http://www.w3.org/2000/svg">
<g id="login-lock-refresh-svgrepo-com 1" clip-path="url(#clip0_721_5702)">
<g id="Group">
<path id="Vector" d="M50 0C22.3846 0 0 22.3846 0 50C0 77.6154 22.3846 100 50 100C77.6154 100 100 77.6154 100 50C100 22.3846 77.6154 0 50 0ZM50 92.1875C26.6998 92.1875 7.8125 73.3002 7.8125 50C7.8125 26.6998 26.6998 7.8125 50 7.8125C73.3002 7.8125 92.1875 26.6998 92.1875 50C92.1875 73.3002 73.3002 92.1875 50 92.1875Z" fill="#110B65"/>
<path id="Vector_2" d="M57.8125 46.875H56.1523C56.2133 46.3836 56.25 45.8617 56.25 45.3125C56.25 42.7338 53.4363 40.625 50 40.625C46.5637 40.625 43.75 42.7338 43.75 45.3125C43.75 45.8617 43.7867 46.3836 43.8477 46.875H42.1875C41.3238 46.875 40.625 47.5738 40.625 48.4375V57.8125C40.625 58.6762 41.3238 59.375 42.1875 59.375H57.8125C58.6762 59.375 59.375 58.6762 59.375 57.8125V48.4375C59.375 47.5738 58.6762 46.875 57.8125 46.875ZM46.875 46.875C45.9381 45.0012 48.2818 43.1244 50 43.1244C51.7182 43.1244 54.0619 45.0012 53.125 46.875H46.875Z" fill="#110B65"/>
<path id="Vector_3" d="M72.442 60.7789L78.4358 50H74.6881C74.5324 35.8703 63.6285 25.0945 49.9262 25.0764C36.1354 25.0611 24.9719 36.2244 24.9903 50.0154C25.0055 63.8094 36.1932 74.9971 49.9842 75.0094C57.7723 75.0277 64.7119 71.4693 69.2805 65.9029L66.2959 60.9256C62.7924 66.2021 56.7957 69.6658 49.9752 69.6566C39.1414 69.6506 30.3494 60.8584 30.3403 50.0217C30.3281 39.185 39.0988 30.4172 49.9324 30.4295C60.7174 30.4479 69.2836 39.3711 69.3752 50.0004L65.6551 49.9943L72.442 60.7789Z" fill="#110B65"/>
</g>
</g>
<defs>
<clipPath id="clip0_721_5702">
<rect width="100" height="100" fill="white"/>
</clipPath>
</defs>
</svg>
