<svg width="14" height="14" viewBox="0 0 14 14" fill="none" xmlns="http://www.w3.org/2000/svg">
<g id="vuesax/outline/star">
<g id="star">
<path id="Vector" d="M10.3016 13.2242C9.99241 13.2242 9.59574 13.125 9.09991 12.8334L7.35574 11.8009C7.17491 11.6959 6.82491 11.6959 6.64991 11.8009L4.89991 12.8334C3.86741 13.4459 3.26074 13.2009 2.98657 13.0025C2.71824 12.8042 2.29824 12.2967 2.57241 11.13L2.98657 9.33919C3.03324 9.15252 2.93991 8.83169 2.79991 8.69169L1.35324 7.24502C0.629906 6.52169 0.688239 5.90335 0.787406 5.60002C0.886573 5.29669 1.20157 4.76002 2.20491 4.59085L4.06574 4.28169C4.24074 4.25252 4.49157 4.06585 4.56741 3.90835L5.59991 1.84919C6.06657 0.91002 6.67907 0.77002 6.99991 0.77002C7.32074 0.77002 7.93324 0.91002 8.39991 1.84919L9.42657 3.90252C9.50824 4.06002 9.75907 4.24669 9.93407 4.27585L11.7949 4.58502C12.8041 4.75419 13.1191 5.29085 13.2124 5.59419C13.3057 5.89752 13.3641 6.51585 12.6466 7.23919L11.1999 8.69169C11.0599 8.83169 10.9724 9.14669 11.0132 9.33919L11.4274 11.13C11.6957 12.2967 11.2816 12.8042 11.0132 13.0025C10.8674 13.1075 10.6341 13.2242 10.3016 13.2242ZM6.99991 10.8442C7.28574 10.8442 7.57157 10.9142 7.79907 11.0484L9.54324 12.0809C10.0507 12.3842 10.3716 12.3842 10.4941 12.2967C10.6166 12.2092 10.7041 11.9 10.5757 11.3284L10.1616 9.53752C10.0507 9.05335 10.2316 8.42919 10.5816 8.07335L12.0282 6.62669C12.3141 6.34085 12.4424 6.06085 12.3841 5.86835C12.3199 5.67585 12.0516 5.51835 11.6549 5.45419L9.79407 5.14502C9.34491 5.06919 8.85491 4.70752 8.65074 4.29919L7.62407 2.24585C7.43741 1.87252 7.20407 1.65085 6.99991 1.65085C6.79574 1.65085 6.56241 1.87252 6.38157 2.24585L5.34907 4.29919C5.14491 4.70752 4.65491 5.06919 4.20574 5.14502L2.35074 5.45419C1.95407 5.51835 1.68574 5.67585 1.62157 5.86835C1.55741 6.06085 1.69157 6.34669 1.97741 6.62669L3.42407 8.07335C3.77407 8.42335 3.95491 9.05335 3.84407 9.53752L3.42991 11.3284C3.29574 11.9059 3.38907 12.2092 3.51157 12.2967C3.63407 12.3842 3.94907 12.3784 4.46241 12.0809L6.20657 11.0484C6.42824 10.9142 6.71407 10.8442 6.99991 10.8442Z" fill="#565656"/>
</g>
</g>
</svg>
