<svg width="40" height="40" viewBox="0 0 40 40" fill="none" xmlns="http://www.w3.org/2000/svg">
<path d="M20.884 34.0333H10.3507C5.08398 34.0333 3.33398 30.5333 3.33398 27.0167V12.9833C3.33398 7.71667 5.08398 5.96667 10.3507 5.96667H20.884C26.1507 5.96667 27.9007 7.71667 27.9007 12.9833V27.0167C27.9007 32.2833 26.134 34.0333 20.884 34.0333Z" stroke="#292D32" stroke-width="1.5" stroke-linecap="round" stroke-linejoin="round"/>
<path d="M32.5337 28.5L27.9004 25.25V14.7333L32.5337 11.4833C34.8004 9.89998 36.6671 10.8666 36.6671 13.65V26.35C36.6671 29.1333 34.8004 30.1 32.5337 28.5Z" stroke="#292D32" stroke-width="1.5" stroke-linecap="round" stroke-linejoin="round"/>
<path d="M19.166 18.3334C20.5467 18.3334 21.666 17.2141 21.666 15.8334C21.666 14.4527 20.5467 13.3334 19.166 13.3334C17.7853 13.3334 16.666 14.4527 16.666 15.8334C16.666 17.2141 17.7853 18.3334 19.166 18.3334Z" stroke="#292D32" stroke-width="1.5" stroke-linecap="round" stroke-linejoin="round"/>
</svg>
